<svg xmlns="http://www.w3.org/2000/svg" viewBox="397 461 15 12.184"><defs><style>.a{fill:#777;}</style></defs><g transform="translate(396.999 403.559)"><g transform="translate(0.001 57.441)"><path class="a" d="M15,58.883a6.145,6.145,0,0,1-1.767.485,3.09,3.09,0,0,0,1.353-1.7,6.2,6.2,0,0,1-1.955.747,3.079,3.079,0,0,0-5.243,2.805A8.736,8.736,0,0,1,1.046,58,3.081,3.081,0,0,0,2,62.111,3.077,3.077,0,0,1,.6,61.725v.038A3.08,3.08,0,0,0,3.073,64.78a3.117,3.117,0,0,1-.811.108,2.954,2.954,0,0,1-.579-.057,3.079,3.079,0,0,0,2.874,2.137A6.174,6.174,0,0,1,.735,68.283,6.539,6.539,0,0,1,0,68.241a8.7,8.7,0,0,0,4.717,1.384,8.694,8.694,0,0,0,8.755-8.755l-.01-.4A6.145,6.145,0,0,0,15,58.883Z" transform="translate(-0.001 -57.441)"/></g></g></svg>