<svg xmlns="http://www.w3.org/2000/svg" viewBox="368 460 15 15"><defs><style>.a{fill:#777;}</style></defs><g transform="translate(368 460)"><path class="a" d="M7.5,0A7.5,7.5,0,1,0,15,7.5,7.508,7.508,0,0,0,7.5,0Zm6.563,7.5a10.8,10.8,0,0,0-4.782-.233c-.2-.461-.406-.907-.615-1.331a9.82,9.82,0,0,0,3.853-2.657A6.532,6.532,0,0,1,14.063,7.5Zm-2.2-4.888A8.874,8.874,0,0,1,8.232,5.085,32.571,32.571,0,0,0,5.8,1.168a6.481,6.481,0,0,1,6.06,1.445ZM4.874,1.49A31.922,31.922,0,0,1,7.327,5.4a20.689,20.689,0,0,1-6.261.816A6.582,6.582,0,0,1,4.874,1.49ZM.938,7.5c0-.116.012-.229.017-.343.175.006.392.011.646.011A20.685,20.685,0,0,0,7.767,6.26q.294.593.58,1.236a10.523,10.523,0,0,0-5.669,4.439A6.529,6.529,0,0,1,.937,7.5Zm2.428,5.09A9.239,9.239,0,0,1,8.706,8.341a24.363,24.363,0,0,1,1.487,5.137,6.524,6.524,0,0,1-6.828-.888Zm7.7.412a25.523,25.523,0,0,0-1.42-4.864,10.23,10.23,0,0,1,4.341.313A6.565,6.565,0,0,1,11.065,13Z"/></g></svg>